<!DOCTYPE svg PUBLIC "-//W3C//DTD SVG 1.1//EN" "http://www.w3.org/Graphics/SVG/1.1/DTD/svg11.dtd">

<!-- Uploaded to: SVG Repo, www.svgrepo.com, Transformed by: SVG Repo Mixer Tools -->
<svg width="64px" height="64px" viewBox="0 0 24 24" id="sunset-alt" xmlns="http://www.w3.org/2000/svg" class="icon multi-color" fill="#000000">

<g id="SVGRepo_bgCarrier" stroke-width="0"/>

<g id="SVGRepo_tracerCarrier" stroke-linecap="round" stroke-linejoin="round"/>

<g id="SVGRepo_iconCarrier">

<title style="stroke-width: 2;">sunset alt</title>

<path id="tertiary-fill" d="M17.65,15a5.87,5.87,0,0,1-1.19,2H7.54a5.87,5.87,0,0,1-1.19-2,6,6,0,0,1,11.3,0Z" style="fill: #b7b7b7; stroke-width: 2;"/>

<path id="primary-stroke" d="M12,7a6,6,0,0,0-6,6,5.76,5.76,0,0,0,.35,2,5.87,5.87,0,0,0,1.19,2h8.92a5.87,5.87,0,0,0,1.19-2A5.76,5.76,0,0,0,18,13,6,6,0,0,0,12,7ZM3,17H21" style="fill: none; stroke: #000000; stroke-linecap: round; stroke-linejoin: round; stroke-width: 2;"/>

</g>

</svg>